Coordinates
version=1
nRows=13
nColumns=40
inDegrees=yes

Units are S.I. units (second, meters, Newtons, ...)
Angles are in degrees.

endheader
time	pelvis_tilt	pelvis_list	pelvis_rotation	pelvis_tx	pelvis_ty	pelvis_tz	hip_flexion_r	hip_adduction_r	hip_rotation_r	knee_angle_r	knee_angle_r_beta	ankle_angle_r	subtalar_angle_r	mtp_angle_r	hip_flexion_l	hip_adduction_l	hip_rotation_l	knee_angle_l	knee_angle_l_beta	ankle_angle_l	subtalar_angle_l	mtp_angle_l	lumbar_extension	lumbar_bending	lumbar_rotation	arm_flex_r	arm_add_r	arm_rot_r	elbow_flex_r	pro_sup_r	wrist_flex_r	wrist_dev_r	arm_flex_l	arm_add_l	arm_rot_l	elbow_flex_l	pro_sup_l	wrist_flex_l	wrist_dev_l
      7.98250000	     -2.51031378	     -5.63423574	     -0.50537920	      1.09501460	      0.91635568	      0.49845315	     23.72203399	      2.68300240	    -13.98997578	     23.35196630	     23.35196630	      4.56075597	     -2.00862070	     -2.20074138	      2.63438505	    -13.09350523	     -6.85533140	     46.45678278	     46.45678278	      6.82829872	    -16.12603666	    -12.75515012	     -9.82458831	      7.13673523	     -0.49180412	    -11.56044590	    -10.66031646	    -14.04497023	     24.55695465	     46.98427756	      0.00000000	      0.00000000	     16.77341234	    -15.32996674	     -7.44653614	     89.35315280	     48.02332516	      0.00000000	      0.00000000
      7.99400000	     -2.49490183	     -5.62460939	     -0.19873353	      1.09505751	      0.91815139	      0.50057376	     22.84269621	      2.69949596	    -14.52586096	     23.06855121	     23.06855121	      5.32231965	     -1.26323858	     -2.14912563	      5.11940013	    -13.24855976	     -5.32107669	     50.92204762	     50.92204762	      7.92707371	    -15.98288410	     -4.47663091	     -9.84468649	      7.03907556	     -0.08576226	    -10.56520446	    -10.63932854	    -13.37747102	     25.43082211	     46.87512059	      0.00000000	      0.00000000	     16.67198554	    -14.57213375	     -6.94193877	     86.91379735	     47.97635322	      0.00000000	      0.00000000
      8.00550000	     -2.55421141	     -5.73949325	      0.12645251	      1.09489153	      0.91970372	      0.50272204	     21.95494909	      2.95587163	    -14.87127539	     22.52673417	     22.52673417	      5.81228565	     -0.99727868	     -2.27352765	      7.47077800	    -13.59935754	     -4.08127280	     54.48218327	     54.48218327	      6.80660272	    -16.81101550	     -2.68987560	     -9.80952644	      7.05811972	     -0.21337304	     -9.07534134	    -10.63053470	    -13.20910887	     26.35787595	     46.82702882	      0.00000000	      0.00000000	     15.78914960	    -14.37275560	     -6.47972022	     85.36277431	     47.92114993	      0.00000000	      0.00000000
      8.01700000	     -2.60489166	     -5.84307974	      0.49426494	      1.09448278	      0.92112635	      0.50449069	     21.07966014	      3.16414799	    -15.28689595	     21.98447868	     21.98447868	      6.13699835	     -0.70594895	     -2.64262384	     10.07478470	    -13.77489799	     -2.70482018	     58.18665366	     58.18665366	      7.83002850	    -16.72724805	      3.63481399	     -9.82918197	      7.09147190	      0.38088652	     -8.27551051	    -10.76101610	    -12.46728452	     27.84666199	     46.68414692	      0.00000000	      0.00000000	     15.81306939	    -13.60631472	     -5.55027767	     82.55715897	     47.83800160	      0.00000000	      0.00000000
      8.02850000	     -2.58645743	     -5.98602354	      0.86048696	      1.09396801	      0.92250217	      0.50625146	     20.16273563	      3.46706946	    -15.52438964	     21.46441992	     21.46441992	      6.49329785	     -0.62686604	     -2.66606516	     12.32782364	    -14.05042086	     -1.63644389	     60.93968212	     60.93968212	      6.93445177	    -17.39273000	      3.93063281	     -9.95158385	      7.12846049	      0.43683171	     -6.63471367	    -10.83366594	    -12.39771591	     28.68036228	     46.65498069	      0.00000000	      0.00000000	     14.91508881	    -13.15766393	     -5.09205472	     81.49309686	     47.78328805	      0.00000000	      0.00000000
      8.04000000	     -2.71148489	     -6.02478576	      1.25410635	      1.09326346	      0.92367611	      0.50771873	     19.35113754	      3.66485239	    -15.71916653	     20.80504003	     20.80504003	      6.70879422	     -0.62691384	     -2.99957475	     14.87799019	    -14.01840695	     -0.45586891	     63.55384569	     63.55384569	      7.57547914	    -17.67740181	      7.40319827	     -9.81934185	      7.11759552	      0.69579907	     -5.60067650	    -11.06668287	    -11.67057041	     30.43405689	     46.51769680	      0.00000000	      0.00000000	     14.95462872	    -12.67320203	     -4.31319313	     77.21010398	     47.66909221	      0.00000000	      0.00000000
      8.05150000	     -2.73725539	     -6.09607538	      1.62507292	      1.09244105	      0.92483711	      0.50910029	     18.48035097	      3.91506676	    -15.82842525	     20.19814737	     20.19814737	      6.85223982	     -0.74364524	     -3.29369693	     17.23557889	    -14.07534467	      0.47070227	     65.63253978	     65.63253978	      8.15865220	    -17.85501679	      9.64936171	     -9.86947784	      7.11045447	      1.15982603	     -4.65651497	    -11.41565132	    -10.82332807	     32.74464261	     46.34534495	      0.00000000	      0.00000000	     14.75022721	    -12.20366518	     -3.11360264	     74.10256623	     47.55280148	      0.00000000	      0.00000000
      8.06300000	     -2.72385120	     -6.12650977	      2.00076466	      1.09159251	      0.92600677	      0.51038692	     17.59458352	      4.12819350	    -15.87879500	     19.64227769	     19.64227769	      7.11789915	     -0.89155882	     -3.30061189	     19.40803019	    -14.09653306	      1.20998822	     67.05611434	     67.05611434	      8.23026286	    -18.18823943	      9.96899291	     -9.94854670	      7.03457457	      0.95671106	     -2.82191142	    -11.59496760	    -10.62191823	     34.09838539	     46.28449396	      0.00000000	      0.00000000	     13.86854175	    -12.02337336	     -2.68306477	     71.69818082	     47.48042896	      0.00000000	      0.00000000
      8.07450000	     -2.73857282	     -6.11348679	      2.36011020	      1.09055295	      0.92708853	      0.51153957	     16.76858412	      4.30100381	    -15.83896142	     19.09646166	     19.09646166	      7.27920066	     -1.15151380	     -3.47637317	     21.59033194	    -14.01918766	      1.85037324	     68.05930091	     68.05930091	      8.83552897	    -18.38149402	     11.34976242	    -10.00860817	      6.93857017	      1.55811597	     -1.72542238	    -12.04882838	     -9.83817515	     36.20085327	     46.14472354	      0.00000000	      0.00000000	     14.06555732	    -11.19821338	     -2.03949066	     67.29908874	     47.37456837	      0.00000000	      0.00000000
      8.08600000	     -2.69254369	     -6.05527603	      2.71020958	      1.08951415	      0.92817374	      0.51258286	     15.89212485	      4.41611400	    -15.81822563	     18.59658576	     18.59658576	      7.49535651	     -1.34246257	     -3.59793126	     23.56919558	    -13.90241909	      2.30732911	     68.49306323	     68.49306323	      9.39382914	    -18.55881223	     12.28166725	    -10.14712391	      6.77968393	      1.78678317	     -0.37298800	    -12.47788779	     -9.26938918	     38.60252024	     46.01318749	      0.00000000	      0.00000000	     13.78221021	    -10.75098707	     -1.32727676	     63.57039538	     47.26891128	      0.00000000	      0.00000000
      8.09750000	     -2.65055350	     -6.00115219	      3.07537641	      1.08838099	      0.92917065	      0.51353356	     15.01406273	      4.52632663	    -15.86702202	     18.07589528	     18.07589528	      7.77145115	     -1.42074769	     -3.56084081	     25.43600518	    -13.80864966	      2.62693151	     68.37175504	     68.37175504	      9.68833768	    -18.72380447	     12.42216395	    -10.29323875	      6.62901928	      1.39310860	      1.75836885	    -12.61371078	     -9.26277229	     40.16639025	     45.96355486	      0.00000000	      0.00000000	     12.57757950	    -10.77228550	     -0.96417716	     61.38814826	     47.19970606	      0.00000000	      0.00000000
      8.10900000	     -2.57608793	     -5.90200726	      3.40829833	      1.08712824	      0.93014581	      0.51442464	     14.14673983	      4.59075303	    -15.86549409	     17.62158193	     17.62158193	      8.02727000	     -1.55469601	     -3.57270063	     27.11863352	    -13.65355863	      2.81355739	     67.73982374	     67.73982374	     10.14167268	    -18.81891037	     13.03652424	    -10.47949150	      6.39311733	      1.22337200	      3.67285629	    -12.88041580	     -8.95783597	     42.27800827	     45.87439639	      0.00000000	      0.00000000	     12.00441551	    -10.45983159	     -0.69183205	     57.68255149	     47.12126418	      0.00000000	      0.00000000
      8.12050000	     -2.54540234	     -5.77448367	      3.72509648	      1.08567386	      0.93099172	      0.51504042	     13.36906286	      4.57950564	    -15.88998354	     17.24399997	     17.24399997	      8.26958442	     -1.59900563	     -3.68663011	     28.74221035	    -13.39628925	      2.93052282	     66.67648881	     66.67648881	     10.78974785	    -18.90255366	     14.43763415	    -10.61307831	      6.22823896	      2.08065353	      4.49954925	    -13.72398908	     -8.10711233	     45.72636690	     45.70005317	      0.00000000	      0.00000000	     12.70598168	     -9.35720253	     -0.44867313	     51.83078377	     47.02582911	      0.00000000	      0.00000000
